<svg version="1.1" xmlns="http://www.w3.org/2000/svg" viewBox="0 0 419.9999999999998 420.00000000000006" width="419.9999999999998" height="420.00000000000006" filter="invert(93%) hue-rotate(180deg)">
  <!-- svg-source:excalidraw -->
  
  <defs>
    <style class="style-fonts">
      
    </style>
    
  </defs>
  <g stroke-linecap="round" transform="translate(10 10.000000000000057) rotate(0 199.9999999999999 200.00000000000006)"><path d="M400 200 C400 204.55, 399.84 209.11, 399.53 213.65 C399.22 218.19, 398.76 222.73, 398.14 227.23 C397.52 231.74, 396.74 236.24, 395.82 240.69 C394.89 245.15, 393.81 249.58, 392.58 253.96 C391.36 258.34, 389.98 262.69, 388.45 266.98 C386.93 271.26, 385.25 275.51, 383.44 279.68 C381.63 283.85, 379.67 287.97, 377.58 292.01 C375.48 296.05, 373.25 300.03, 370.88 303.92 C368.52 307.8, 366.02 311.62, 363.39 315.34 C360.77 319.05, 358.01 322.69, 355.14 326.22 C352.27 329.75, 349.27 333.19, 346.17 336.51 C343.06 339.84, 339.84 343.06, 336.51 346.17 C333.19 349.27, 329.75 352.27, 326.22 355.14 C322.69 358.01, 319.05 360.77, 315.34 363.39 C311.62 366.02, 307.8 368.52, 303.92 370.88 C300.03 373.25, 296.05 375.48, 292.01 377.58 C287.97 379.67, 283.85 381.63, 279.68 383.44 C275.51 385.25, 271.26 386.93, 266.98 388.45 C262.69 389.98, 258.34 391.36, 253.96 392.58 C249.58 393.81, 245.15 394.89, 240.69 395.82 C236.24 396.74, 231.74 397.52, 227.23 398.14 C222.73 398.76, 218.19 399.22, 213.65 399.53 C209.11 399.84, 204.55 400, 200 400 C195.45 400, 190.89 399.84, 186.35 399.53 C181.81 399.22, 177.27 398.76, 172.77 398.14 C168.26 397.52, 163.76 396.74, 159.31 395.82 C154.85 394.89, 150.42 393.81, 146.04 392.58 C141.66 391.36, 137.31 389.98, 133.02 388.45 C128.74 386.93, 124.49 385.25, 120.32 383.44 C116.15 381.63, 112.03 379.67, 107.99 377.58 C103.95 375.48, 99.97 373.25, 96.08 370.88 C92.2 368.52, 88.38 366.02, 84.66 363.39 C80.95 360.77, 77.31 358.01, 73.78 355.14 C70.25 352.27, 66.81 349.27, 63.49 346.17 C60.16 343.06, 56.94 339.84, 53.83 336.51 C50.73 333.19, 47.73 329.75, 44.86 326.22 C41.99 322.69, 39.23 319.05, 36.61 315.34 C33.98 311.62, 31.48 307.8, 29.12 303.92 C26.75 300.03, 24.52 296.05, 22.42 292.01 C20.33 287.97, 18.37 283.85, 16.56 279.68 C14.75 275.51, 13.07 271.26, 11.55 266.98 C10.02 262.69, 8.64 258.34, 7.42 253.96 C6.19 249.58, 5.11 245.15, 4.18 240.69 C3.26 236.24, 2.48 231.74, 1.86 227.23 C1.24 222.73, 0.78 218.19, 0.47 213.65 C0.16 209.11, 0 204.55, 0 200 C0 195.45, 0.16 190.89, 0.47 186.35 C0.78 181.81, 1.24 177.27, 1.86 172.77 C2.48 168.26, 3.26 163.76, 4.18 159.31 C5.11 154.85, 6.19 150.42, 7.42 146.04 C8.64 141.66, 10.02 137.31, 11.55 133.02 C13.07 128.74, 14.75 124.49, 16.56 120.32 C18.37 116.15, 20.33 112.03, 22.42 107.99 C24.52 103.95, 26.75 99.97, 29.12 96.08 C31.48 92.2, 33.98 88.38, 36.61 84.66 C39.23 80.95, 41.99 77.31, 44.86 73.78 C47.73 70.25, 50.73 66.81, 53.83 63.49 C56.94 60.16, 60.16 56.94, 63.49 53.83 C66.81 50.73, 70.25 47.73, 73.78 44.86 C77.31 41.99, 80.95 39.23, 84.66 36.61 C88.38 33.98, 92.2 31.48, 96.08 29.12 C99.97 26.75, 103.95 24.52, 107.99 22.42 C112.03 20.33, 116.15 18.37, 120.32 16.56 C124.49 14.75, 128.74 13.07, 133.02 11.55 C137.31 10.02, 141.66 8.64, 146.04 7.42 C150.42 6.19, 154.85 5.11, 159.31 4.18 C163.76 3.26, 168.26 2.48, 172.77 1.86 C177.27 1.24, 181.81 0.78, 186.35 0.47 C190.89 0.16, 195.45 0, 200 0 C204.55 0, 209.11 0.16, 213.65 0.47 C218.19 0.78, 222.73 1.24, 227.23 1.86 C231.74 2.48, 236.24 3.26, 240.69 4.18 C245.15 5.11, 249.58 6.19, 253.96 7.42 C258.34 8.64, 262.69 10.02, 266.98 11.55 C271.26 13.07, 275.51 14.75, 279.68 16.56 C283.85 18.37, 287.97 20.33, 292.01 22.42 C296.05 24.52, 300.03 26.75, 303.92 29.12 C307.8 31.48, 311.62 33.98, 315.34 36.61 C319.05 39.23, 322.69 41.99, 326.22 44.86 C329.75 47.73, 333.19 50.73, 336.51 53.83 C339.84 56.94, 343.06 60.16, 346.17 63.49 C349.27 66.81, 352.27 70.25, 355.14 73.78 C358.01 77.31, 360.77 80.95, 363.39 84.66 C366.02 88.38, 368.52 92.2, 370.88 96.08 C373.25 99.97, 375.48 103.95, 377.58 107.99 C379.67 112.03, 381.63 116.15, 383.44 120.32 C385.25 124.49, 386.93 128.74, 388.45 133.02 C389.98 137.31, 391.36 141.66, 392.58 146.04 C393.81 150.42, 394.89 154.85, 395.82 159.31 C396.74 163.76, 397.52 168.26, 398.14 172.77 C398.76 177.27, 399.22 181.81, 399.53 186.35 C399.84 190.89, 400 195.45, 400 200" stroke="#1e1e1e" stroke-width="4" fill="none"></path></g><g stroke-linecap="round"><g transform="translate(30 150.00000000000006) rotate(0 180 0)"><path d="M0 0 C60 0, 300 0, 360 0 M0 0 C60 0, 300 0, 360 0" stroke="#1e1e1e" stroke-width="4" fill="none"></path></g></g><mask></mask><g stroke-linecap="round"><g transform="translate(30 270.00000000000006) rotate(0 180 0)"><path d="M0 0 C60 0, 300 0, 360 0 M0 0 C60 0, 300 0, 360 0" stroke="#1e1e1e" stroke-width="4" fill="none"></path></g></g><mask></mask><g transform="translate(209.25543219093925 11.840706588875094) rotate(0 -70.70762397486396 169.79788574245322)" stroke="none"><path fill="#1e1e1e" d="M 1.57,0 Q 1.57,0 1.56,2.00 1.56,4.00 1.52,7.15 1.49,10.29 1.46,14.49 1.44,18.69 1.42,23.91 1.40,29.13 1.39,33.63 1.38,38.14 1.37,42.64 1.36,47.13 1.35,50.19 1.34,53.24 1.05,56.60 0.76,59.96 0.34,63.39 -0.06,66.82 -0.21,68.82 -0.36,70.83 -0.64,72.15 -0.91,73.47 -0.90,75.12 -0.89,76.76 -0.78,78.26 -0.68,79.76 -0.97,80.96 -1.26,82.16 -1.28,83.49 -1.30,84.83 -1.22,86.39 -1.15,87.95 -1.49,89.19 -1.83,90.44 -1.89,91.78 -1.94,93.13 -2.39,94.23 -2.84,95.34 -3.26,96.75 -3.69,98.16 -4.10,99.40 -4.51,100.64 -4.99,102.10 -5.47,103.56 -5.94,104.54 -6.41,105.51 -6.92,107.52 -7.43,109.52 -7.94,110.76 -8.45,112.01 -8.95,113.28 -9.45,114.54 -9.98,115.93 -10.52,117.32 -11.10,119.77 -11.69,122.22 -12.18,123.50 -12.67,124.78 -13.17,125.90 -13.66,127.03 -14.18,128.98 -14.69,130.94 -14.81,132.34 -14.92,133.75 -15.36,134.84 -15.80,135.92 -16.18,137.52 -16.56,139.11 -17.01,140.32 -17.46,141.52 -17.62,142.91 -17.78,144.29 -17.88,146.70 -17.99,149.11 -18.33,150.66 -18.68,152.20 -19.14,153.65 -19.61,155.10 -20.12,156.56 -20.63,158.02 -21.15,159.49 -21.68,160.96 -21.86,162.21 -22.03,163.47 -22.46,165.09 -22.88,166.71 -23.80,168.84 -24.71,170.96 -24.96,172.28 -25.22,173.60 -25.29,174.68 -25.36,175.77 -25.70,177.08 -26.05,178.40 -26.48,179.54 -26.92,180.68 -27.43,182.53 -27.95,184.39 -28.42,185.70 -28.89,187.01 -29.38,188.47 -29.87,189.92 -30.32,191.49 -30.76,193.05 -31.24,194.12 -31.72,195.20 -32.17,196.67 -32.61,198.13 -32.97,199.22 -33.33,200.31 -33.92,201.70 -34.50,203.09 -35.00,204.62 -35.49,206.15 -35.99,207.22 -36.49,208.28 -36.84,209.31 -37.19,210.34 -37.80,211.72 -38.40,213.11 -38.90,214.63 -39.40,216.15 -40.26,217.75 -41.12,219.34 -41.75,220.85 -42.39,222.35 -43.34,224.26 -44.29,226.16 -44.99,227.39 -45.68,228.62 -46.39,229.47 -47.09,230.33 -48.12,231.88 -49.14,233.42 -49.70,235.27 -50.25,237.11 -50.76,238.61 -51.26,240.11 -51.78,241.17 -52.29,242.23 -52.79,243.24 -53.29,244.25 -54.15,245.77 -55.01,247.30 -55.54,248.33 -56.07,249.37 -56.34,250.95 -56.61,252.54 -57.29,253.42 -57.97,254.30 -59.02,255.85 -60.06,257.41 -61.34,258.78 -62.62,260.16 -63.33,261.42 -64.05,262.68 -64.93,263.43 -65.81,264.18 -66.58,265.35 -67.36,266.52 -68.21,267.43 -69.06,268.34 -70.05,269.83 -71.04,271.33 -71.66,272.37 -72.29,273.41 -72.84,274.41 -73.39,275.40 -74.29,276.79 -75.18,278.18 -76.24,279.34 -77.30,280.51 -78.30,282.00 -79.31,283.49 -80.39,284.57 -81.46,285.64 -82.38,286.51 -83.29,287.38 -84.14,288.31 -84.99,289.25 -86.06,290.35 -87.13,291.44 -88.13,292.41 -89.14,293.38 -90.13,294.39 -91.12,295.39 -91.70,296.47 -92.28,297.55 -93.29,298.56 -94.30,299.58 -95.77,301.08 -97.25,302.58 -98.30,303.63 -99.36,304.67 -100.86,306.23 -102.37,307.79 -103.33,308.69 -104.29,309.59 -105.31,310.58 -106.33,311.57 -107.78,313.04 -109.23,314.51 -110.27,315.55 -111.32,316.59 -112.35,317.60 -113.39,318.60 -114.72,319.43 -116.05,320.27 -117.04,321.30 -118.02,322.32 -118.61,323.37 -119.20,324.42 -120.52,325.76 -121.84,327.11 -122.57,328.25 -123.30,329.39 -124.21,330.34 -125.13,331.29 -126.19,332.38 -127.26,333.48 -128.62,334.35 -129.98,335.23 -131.22,336.48 -132.46,337.73 -133.72,338.49 -134.97,339.25 -137.38,341.08 -139.80,342.91 -140.38,343.03 -140.97,343.15 -141.56,343.07 -142.15,343.00 -142.68,342.74 -143.22,342.48 -143.64,342.07 -144.06,341.65 -144.33,341.12 -144.60,340.59 -144.69,340.00 -144.78,339.41 -144.67,338.83 -144.57,338.24 -144.28,337.72 -143.99,337.20 -143.55,336.80 -143.12,336.40 -142.57,336.16 -142.03,335.92 -141.44,335.86 -140.85,335.81 -140.27,335.95 -139.69,336.09 -139.18,336.40 -138.68,336.71 -138.30,337.17 -137.93,337.63 -137.72,338.19 -137.50,338.74 -137.48,339.34 -137.46,339.93 -137.63,340.50 -137.80,341.07 -138.14,341.56 -138.48,342.04 -138.96,342.40 -139.44,342.75 -140.00,342.93 -140.57,343.11 -141.16,343.10 -141.76,343.09 -142.32,342.89 -142.88,342.69 -143.35,342.32 -143.81,341.96 -144.14,341.46 -144.46,340.96 -144.61,340.39 -144.76,339.81 -144.72,339.22 -144.68,338.63 -144.45,338.08 -144.22,337.53 -143.83,337.08 -143.44,336.64 -142.92,336.34 -142.41,336.04 -142.41,336.04 -142.41,336.04 -140.66,334.99 -138.91,333.93 -137.47,333.03 -136.03,332.13 -134.98,331.05 -133.94,329.98 -133.09,329.15 -132.25,328.33 -131.34,327.38 -130.42,326.44 -128.75,324.81 -127.08,323.19 -126.25,321.85 -125.41,320.52 -124.42,319.50 -123.43,318.48 -122.48,317.56 -121.53,316.65 -120.75,315.85 -119.96,315.05 -119.08,314.21 -118.20,313.37 -117.18,312.38 -116.16,311.39 -115.22,310.47 -114.28,309.56 -113.32,308.55 -112.36,307.54 -111.32,306.49 -110.27,305.43 -109.14,304.72 -108.02,304.00 -107.23,303.21 -106.43,302.42 -105.33,300.92 -104.23,299.42 -103.29,298.50 -102.35,297.58 -101.41,296.57 -100.47,295.57 -99.49,294.54 -98.51,293.52 -97.63,292.66 -96.74,291.80 -95.48,290.55 -94.21,289.30 -93.18,288.27 -92.15,287.23 -90.77,285.85 -89.39,284.46 -88.92,283.48 -88.45,282.51 -87.00,281.06 -85.54,279.62 -84.62,278.68 -83.71,277.74 -82.74,276.25 -81.78,274.75 -81.23,273.75 -80.67,272.74 -79.79,271.88 -78.90,271.03 -78.47,270.03 -78.04,269.04 -77.17,268.24 -76.31,267.44 -75.67,266.26 -75.03,265.07 -74.22,264.27 -73.41,263.47 -72.52,262.09 -71.63,260.71 -70.83,259.78 -70.03,258.84 -69.25,257.63 -68.47,256.41 -66.93,254.95 -65.38,253.48 -64.77,252.31 -64.16,251.14 -63.61,250.22 -63.05,249.30 -62.51,247.76 -61.97,246.22 -61.46,245.23 -60.96,244.24 -60.46,243.24 -59.97,242.24 -59.46,241.22 -58.95,240.20 -58.47,239.24 -57.99,238.28 -57.49,236.78 -56.98,235.28 -56.49,234.26 -56.00,233.24 -55.48,231.75 -54.96,230.27 -54.41,229.23 -53.87,228.19 -52.82,226.62 -51.77,225.04 -50.63,223.26 -49.49,221.47 -48.84,219.92 -48.19,218.36 -47.66,217.36 -47.13,216.36 -46.56,215.42 -45.98,214.47 -45.45,212.94 -44.91,211.41 -44.41,210.38 -43.91,209.36 -43.40,207.89 -42.90,206.43 -42.40,205.45 -41.89,204.47 -41.36,202.97 -40.83,201.48 -40.33,200.46 -39.82,199.44 -39.32,198.01 -38.82,196.59 -38.26,195.08 -37.70,193.56 -36.72,191.78 -35.75,189.99 -35.15,188.44 -34.55,186.89 -34.10,185.30 -33.65,183.71 -32.89,182.48 -32.13,181.25 -31.84,180.01 -31.55,178.77 -30.78,177.00 -30.01,175.24 -29.82,173.95 -29.62,172.66 -29.25,171.07 -28.89,169.49 -28.34,167.48 -27.79,165.48 -27.47,164.12 -27.15,162.76 -26.91,161.05 -26.68,159.33 -26.24,157.85 -25.80,156.37 -25.39,154.94 -24.98,153.51 -24.38,151.27 -23.79,149.03 -23.80,146.40 -23.81,143.78 -23.44,141.68 -23.08,139.59 -22.39,137.65 -21.70,135.71 -21.12,133.61 -20.53,131.51 -19.97,129.45 -19.40,127.39 -19.09,126.08 -18.78,124.77 -18.32,123.77 -17.87,122.77 -17.47,121.75 -17.07,120.73 -16.75,119.50 -16.43,118.26 -16.18,116.87 -15.92,115.48 -15.47,114.02 -15.03,112.56 -14.21,110.18 -13.39,107.80 -13.10,106.66 -12.81,105.52 -12.51,104.19 -12.21,102.85 -11.54,101.38 -10.88,99.90 -10.35,98.43 -9.83,96.96 -9.34,95.92 -8.84,94.88 -8.36,93.20 -7.88,91.52 -7.57,89.99 -7.26,88.47 -6.95,87.07 -6.64,85.68 -6.46,84.31 -6.29,82.93 -6.06,81.78 -5.83,80.62 -5.47,79.45 -5.10,78.29 -4.83,76.57 -4.57,74.85 -4.28,73.68 -3.99,72.51 -3.55,71.54 -3.10,70.58 -2.90,68.54 -2.71,66.50 -2.30,63.12 -1.90,59.73 -1.62,56.48 -1.34,53.24 -1.35,50.19 -1.36,47.13 -1.37,42.64 -1.38,38.14 -1.39,33.63 -1.40,29.13 -1.42,23.91 -1.44,18.69 -1.46,14.49 -1.49,10.29 -1.52,7.15 -1.56,4.00 -1.56,2.00 -1.57,0 -1.54,-0.18 -1.52,-0.37 -1.45,-0.55 -1.39,-0.73 -1.28,-0.88 -1.17,-1.04 -1.03,-1.16 -0.89,-1.29 -0.72,-1.38 -0.55,-1.47 -0.37,-1.51 -0.18,-1.56 0.00,-1.56 0.18,-1.56 0.37,-1.51 0.55,-1.47 0.72,-1.38 0.89,-1.29 1.03,-1.16 1.17,-1.04 1.28,-0.88 1.39,-0.73 1.45,-0.55 1.52,-0.37 1.54,-0.18 1.57,0.00 1.57,0.00 L 1.57,0 Z"></path></g><g transform="translate(211.24719624656973 12.836588616686697) rotate(0 67.22203687751153 173.781413853716)" stroke="none"><path fill="#1e1e1e" d="M 1.70,0 Q 1.70,0 1.73,1.71 1.77,3.43 1.85,4.73 1.93,6.04 2.13,9.08 2.33,12.13 3.22,15.62 4.12,19.11 4.78,21.81 5.44,24.51 5.99,26.81 6.55,29.11 7.06,31.24 7.57,33.36 8.07,35.72 8.58,38.07 9.11,39.88 9.63,41.69 10.13,44.25 10.62,46.80 11.12,48.68 11.63,50.56 12.12,53.44 12.61,56.33 13.10,59.55 13.58,62.77 13.83,64.73 14.07,66.69 14.24,68.41 14.40,70.12 14.51,71.72 14.62,73.31 14.69,74.85 14.77,76.39 14.83,77.90 14.89,79.42 15.15,81.05 15.42,82.69 15.52,84.69 15.63,86.69 15.74,88.09 15.86,89.50 16.04,91.34 16.22,93.19 16.26,94.45 16.30,95.72 16.34,96.80 16.38,97.89 16.87,99.39 17.37,100.89 17.53,102.56 17.69,104.22 17.76,105.43 17.83,106.65 18.27,107.84 18.70,109.03 18.85,110.33 18.99,111.63 19.05,112.69 19.10,113.75 19.15,115.26 19.20,116.77 19.42,117.92 19.64,119.07 19.89,120.69 20.13,122.31 20.56,123.62 20.99,124.92 21.14,126.25 21.28,127.57 21.68,128.73 22.08,129.89 22.21,131.22 22.35,132.55 22.74,133.70 23.13,134.86 23.26,136.19 23.40,137.53 23.76,138.65 24.12,139.77 24.28,141.15 24.45,142.53 24.46,144.38 24.47,146.22 24.47,147.36 24.46,148.49 24.83,149.63 25.19,150.77 25.26,151.83 25.33,152.90 25.73,154.33 26.14,155.75 26.24,157.00 26.34,158.24 26.82,160.03 27.31,161.82 27.95,163.29 28.60,164.75 29.33,167.08 30.07,169.41 30.54,170.48 31.02,171.56 31.60,173.03 32.18,174.51 32.53,175.86 32.88,177.21 33.53,178.33 34.17,179.44 35.09,180.89 36.01,182.34 36.54,183.44 37.07,184.54 37.86,185.39 38.64,186.24 39.15,187.21 39.66,188.18 40.56,189.47 41.46,190.76 42.47,192.38 43.47,194.00 44.61,196.09 45.74,198.17 47.13,200.02 48.51,201.87 49.63,203.06 50.74,204.25 51.38,205.22 52.02,206.19 52.82,207.09 53.61,208.00 54.36,209.14 55.11,210.27 55.68,211.81 56.25,213.35 56.95,214.20 57.65,215.06 58.23,216.17 58.82,217.27 59.34,218.28 59.85,219.29 60.80,220.68 61.74,222.08 62.43,223.15 63.13,224.21 63.62,225.28 64.11,226.35 64.60,227.32 65.08,228.30 65.90,229.67 66.72,231.04 67.72,232.53 68.71,234.01 69.27,235.10 69.83,236.18 70.34,237.19 70.85,238.20 71.79,239.59 72.73,240.99 73.28,242.07 73.83,243.14 74.34,244.15 74.85,245.16 75.80,246.58 76.74,247.99 77.31,249.58 77.87,251.17 78.37,253.09 78.86,255.01 79.35,256.65 79.84,258.30 80.29,259.49 80.74,260.67 81.27,261.76 81.80,262.84 82.30,263.87 82.79,264.91 83.61,265.93 84.43,266.94 84.91,267.90 85.39,268.86 86.38,270.35 87.36,271.85 88.04,273.02 88.72,274.20 89.27,275.22 89.82,276.24 90.35,277.23 90.87,278.22 91.13,279.54 91.39,280.85 91.95,281.79 92.50,282.72 93.60,284.37 94.69,286.02 95.20,287.02 95.71,288.01 96.69,289.48 97.67,290.95 98.21,292.00 98.76,293.04 99.25,294.00 99.75,294.96 100.28,295.99 100.82,297.01 101.31,298.01 101.80,299.01 102.31,300.00 102.81,300.99 103.32,301.98 103.83,302.98 104.36,304.51 104.90,306.04 105.79,307.88 106.68,309.72 107.21,310.78 107.74,311.85 108.79,313.88 109.83,315.92 110.28,316.90 110.73,317.88 111.26,318.90 111.78,319.92 112.27,320.91 112.77,321.91 113.29,323.41 113.81,324.91 114.29,325.87 114.77,326.83 115.56,327.65 116.35,328.47 117.24,329.81 118.13,331.14 119.38,332.38 120.64,333.63 121.90,334.84 123.16,336.05 124.56,336.98 125.97,337.91 127.00,338.53 128.04,339.16 129.00,340.02 129.96,340.89 131.45,341.88 132.95,342.88 134.10,343.41 135.25,343.95 135.78,344.22 136.31,344.49 136.73,344.91 137.15,345.34 137.41,345.87 137.67,346.41 137.75,347.00 137.83,347.59 137.71,348.18 137.59,348.76 137.30,349.28 137.00,349.79 136.55,350.19 136.11,350.58 135.56,350.82 135.01,351.05 134.41,351.09 133.82,351.14 133.24,350.99 132.66,350.84 132.16,350.52 131.66,350.19 131.29,349.72 130.92,349.26 130.72,348.69 130.52,348.13 130.51,347.54 130.49,346.94 130.67,346.37 130.85,345.80 131.20,345.32 131.55,344.84 132.04,344.49 132.53,344.15 133.10,343.98 133.67,343.81 134.27,343.83 134.86,343.85 135.42,344.06 135.98,344.27 136.44,344.65 136.90,345.02 137.22,345.53 137.54,346.03 137.68,346.61 137.82,347.19 137.77,347.79 137.71,348.38 137.47,348.93 137.23,349.47 136.83,349.91 136.43,350.35 135.91,350.64 135.39,350.93 134.80,351.04 134.22,351.15 133.63,351.07 133.03,350.98 133.04,350.98 133.04,350.98 131.01,349.61 128.98,348.23 127.75,347.49 126.51,346.74 125.07,345.86 123.62,344.97 122.82,344.10 122.02,343.24 120.65,342.40 119.28,341.57 118.34,340.63 117.40,339.68 116.21,338.45 115.02,337.21 113.97,336.18 112.92,335.15 112.02,334.28 111.12,333.41 110.08,332.16 109.03,330.92 108.53,329.92 108.03,328.92 107.41,326.96 106.80,325.00 106.11,324.14 105.42,323.27 105.06,322.08 104.69,320.89 104.18,319.32 103.67,317.75 102.87,316.85 102.08,315.96 101.57,314.95 101.06,313.94 100.51,312.88 99.96,311.82 99.36,310.92 98.76,310.03 98.32,308.09 97.89,306.16 97.39,305.16 96.90,304.15 96.37,303.12 95.85,302.10 95.16,301.23 94.48,300.37 94.21,299.26 93.94,298.15 93.45,297.14 92.97,296.13 92.47,295.13 91.97,294.13 91.09,293.07 90.21,292.02 89.72,291.03 89.24,290.04 88.51,288.44 87.79,286.84 87.32,285.78 86.84,284.71 86.10,283.34 85.35,281.97 84.87,280.96 84.39,279.95 83.89,278.92 83.40,277.89 82.82,276.78 82.24,275.66 81.59,274.79 80.93,273.92 79.59,271.81 78.25,269.70 77.63,268.79 77.00,267.88 76.47,266.89 75.94,265.91 75.39,264.93 74.83,263.95 74.00,261.82 73.17,259.70 72.68,258.52 72.19,257.35 72.07,256.19 71.94,255.04 71.45,253.65 70.95,252.27 70.11,250.77 69.28,249.28 68.77,248.25 68.26,247.23 67.77,246.26 67.28,245.28 66.29,243.79 65.31,242.29 64.80,241.27 64.29,240.25 63.81,239.28 63.32,238.30 62.34,236.83 61.36,235.36 60.36,233.82 59.35,232.28 58.82,231.20 58.29,230.12 57.33,228.26 56.38,226.40 55.38,224.88 54.38,223.35 53.88,222.34 53.38,221.32 52.62,219.71 51.85,218.10 51.03,217.25 50.21,216.39 49.67,215.03 49.13,213.68 48.56,212.49 47.98,211.31 46.77,209.97 45.57,208.64 44.80,207.42 44.03,206.20 43.55,205.19 43.07,204.17 41.74,203.06 40.41,201.94 39.49,200.13 38.57,198.32 37.97,197.22 37.38,196.11 36.71,195.28 36.04,194.46 34.84,192.57 33.64,190.68 32.58,189.46 31.52,188.25 30.96,187.28 30.40,186.31 29.93,185.28 29.46,184.24 28.42,182.56 27.38,180.88 26.83,179.34 26.28,177.80 25.70,176.75 25.13,175.70 24.72,174.36 24.32,173.01 23.85,171.63 23.38,170.25 22.77,168.86 22.16,167.47 21.72,166.21 21.28,164.95 20.84,163.15 20.40,161.36 19.87,159.25 19.35,157.13 18.88,155.90 18.41,154.67 18.28,153.01 18.15,151.36 17.75,149.41 17.34,147.47 17.33,146.08 17.31,144.69 17.73,143.66 18.14,142.63 17.54,141.74 16.95,140.84 16.66,139.79 16.37,138.75 16.41,137.58 16.45,136.42 15.97,135.20 15.48,133.98 15.50,132.70 15.51,131.41 15.03,130.20 14.55,129.00 14.56,127.67 14.58,126.34 14.07,124.61 13.57,122.88 13.46,121.81 13.36,120.75 13.00,119.27 12.63,117.80 12.67,116.29 12.71,114.79 12.76,113.34 12.80,111.89 12.76,110.61 12.72,109.33 12.39,107.48 12.06,105.63 12.10,104.21 12.14,102.79 12.13,101.57 12.11,100.35 11.80,99.18 11.49,98.00 11.53,96.87 11.56,95.74 11.60,94.48 11.63,93.23 11.74,91.44 11.86,89.65 11.87,88.29 11.88,86.93 11.74,85.12 11.60,83.31 11.29,81.37 10.98,79.44 11.02,77.94 11.06,76.43 11.11,74.91 11.15,73.40 11.19,71.85 11.22,70.29 11.20,68.65 11.18,67.01 11.01,65.10 10.83,63.19 10.32,60.01 9.81,56.82 9.30,54.06 8.80,51.30 8.30,49.33 7.81,47.36 7.30,44.91 6.79,42.46 6.31,40.57 5.83,38.68 5.30,36.37 4.78,34.07 4.22,31.96 3.66,29.85 3.05,27.58 2.43,25.30 1.69,22.64 0.94,19.97 -0.12,16.22 -1.18,12.46 -1.56,9.25 -1.93,6.04 -1.85,4.73 -1.77,3.43 -1.73,1.71 -1.70,0 -1.67,-0.20 -1.65,-0.40 -1.58,-0.59 -1.50,-0.79 -1.39,-0.96 -1.27,-1.12 -1.12,-1.26 -0.96,-1.40 -0.78,-1.49 -0.60,-1.59 -0.40,-1.64 -0.20,-1.69 0.00,-1.69 0.20,-1.69 0.40,-1.64 0.60,-1.59 0.78,-1.49 0.96,-1.40 1.12,-1.26 1.27,-1.12 1.39,-0.96 1.50,-0.79 1.58,-0.59 1.65,-0.40 1.67,-0.20 1.70,0.00 1.70,0.00 L 1.70,0 Z"></path></g></svg>